<?xml version="1.0" standalone="no"?>
<!DOCTYPE svg PUBLIC "-//W3C//DTD SVG 1.1//EN" "http://www.w3.org/Graphics/SVG/1.1/DTD/svg11.dtd" >
<svg xmlns="http://www.w3.org/2000/svg">
<metadata>
Created by FontForge 20120731 at Mon Jul 24 11:28:22 2017
 By admin
</metadata>
<defs>
<font id="iconfont" horiz-adv-x="1024" >
  <font-face 
    font-family="iconfont"
    font-weight="500"
    font-stretch="normal"
    units-per-em="1024"
    panose-1="2 0 6 3 0 0 0 0 0 0"
    ascent="896"
    descent="-128"
    x-height="792"
    bbox="0 -128 1196 896"
    underline-thickness="0"
    underline-position="0"
    unicode-range="U+0078-E17FC"
  />
<missing-glyph 
 />
    <glyph glyph-name=".notdef" 
 />
    <glyph glyph-name=".null" horiz-adv-x="0" 
 />
    <glyph glyph-name="nonmarkingreturn" horiz-adv-x="341" 
 />
    <glyph glyph-name="x" unicode="x" horiz-adv-x="1001" 
d="M281 543q-27 -1 -53 -1h-83q-18 0 -36.5 -6t-32.5 -18.5t-23 -32t-9 -45.5v-76h912v41q0 16 -0.5 30t-0.5 18q0 13 -5 29t-17 29.5t-31.5 22.5t-49.5 9h-133v-97h-438v97zM955 310v-52q0 -23 0.5 -52t0.5 -58t-10.5 -47.5t-26 -30t-33 -16t-31.5 -4.5q-14 -1 -29.5 -0.5
t-29.5 0.5h-32l-45 128h-439l-44 -128h-29h-34q-20 0 -45 1q-25 0 -41 9.5t-25.5 23t-13.5 29.5t-4 30v167h911zM163 247q-12 0 -21 -8.5t-9 -21.5t9 -21.5t21 -8.5q13 0 22 8.5t9 21.5t-9 21.5t-22 8.5zM316 123q-8 -26 -14 -48q-5 -19 -10.5 -37t-7.5 -25t-3 -15t1 -14.5
t9.5 -10.5t21.5 -4h37h67h81h80h64h36q23 0 34 12t2 38q-5 13 -9.5 30.5t-9.5 34.5q-5 19 -11 39h-368zM336 498v228q0 11 2.5 23t10 21.5t20.5 15.5t34 6h188q31 0 51.5 -14.5t20.5 -52.5v-227h-327z" />
    <glyph glyph-name="zhuangxiugongsis" unicode="&#xe925;" horiz-adv-x="1281" 
d="M1196 384q0 -104 -40.5 -199t-109 -163.5t-163.5 -109t-199 -40.5t-199 40.5t-163.5 109t-109 163.5t-40.5 199t40.5 199t109 163.5t163.5 109t199 40.5t199 -40.5t163.5 -109t109 -163.5t40.5 -199zM1046 428v0l-4 5l-5 5l-275 302q-31 34 -77.5 34t-77.5 -34l-275 -302
q-3 -1 -6 -5l-3 -5q0 -7 7.5 -20t15.5 -13q14 0 21 7.5t13 14.5l227 249q17 18 24.5 26t24.5 19.5t31 11.5q11 0 22.5 -7t17.5 -12.5t19 -20.5t15 -17l227 -249l11 -13q8 -9 24 -9q8 0 15.5 13t7.5 20v0zM465 403q-14 0 -18 -7h-2v-271q0 -49 30.5 -85t86.5 -32h237
q46 0 78 34l-13 21l-10 5q-20 -20 -48 -20h-251q-17 0 -30.5 7t-20.5 17.5t-11 20.5t-6 18l-1 7l-1 250v28h-2q-3 7 -18 7v0zM760 130l13 3q-28 25 -49 49t-37 51.5t-14 52.5t24 44q31 23 58 13.5t46 -26t19 -19.5q0 2 1 4t4 9t6.5 13t9.5 15t12 15t15 13t17.5 9.5t20 4
t23.5 -4.5q33 -11 41 -42.5t-6 -73t-32 -78t-40 -70.5l31 -9q23 34 41.5 78.5t30 93t-1 88t-52.5 52.5q-25 9 -45.5 5.5t-35 -13t-23.5 -22t-13.5 -20.5t-4.5 -9q-3 3 -8 7t-20 13t-30.5 13t-37 -0.5t-40.5 -21.5q-36 -31 -33 -75t29 -86.5t67 -76.5h14v1zM772 130z" />
    <glyph glyph-name="dablebaojiances" unicode="&#xe914;" 
d="M512 879q-100 0 -192 -39.5t-158 -105.5t-105.5 -158t-39.5 -192t39.5 -192t105.5 -158t158 -105.5t192 -39.5t192 39.5t158 105.5t105.5 158t39.5 192t-39.5 192t-105.5 158t-158 105.5t-192 39.5zM512 -93q-97 0 -185.5 37.5t-152.5 101.5t-101.5 152.5t-37.5 185.5
t37.5 185.5t101.5 152.5t152.5 101.5t185.5 37.5t185.5 -37.5t152.5 -101.5t101.5 -152.5t37.5 -185.5t-37.5 -185.5t-101.5 -152.5t-152.5 -101.5t-185.5 -37.5zM628 436l-1 2v121l8 7h-147l8 -7v-123l-125 -184q-13 -28 -5 -45q6 -11 25 -14h340q17 9 24 23q6 17 -3 38
q-12 23 -42.5 68.5t-55 78.5t-26.5 35zM514 398l38 38q14 14 21 24q5 8 5 19q0 13 -7 18q-8 5 -17 5q-18 0 -33 -16v18q14 12 36 12q17 0 27.5 -10.5t10.5 -26.5q0 -12 -7 -24q-7 -13 -24 -29l-29 -30h60v-14h-80v16h-1zM698 212h-281q-17 0 -22 9t-2 19l3 9l43 76h248
l40 -75q4 -16 -3.5 -25.5t-16.5 -10.5zM512 783q-108 0 -200 -53.5t-145.5 -145.5t-53.5 -200t53.5 -200t145.5 -145.5t200 -53.5t200 53.5t145.5 145.5t53.5 200t-53.5 200t-145.5 145.5t-200 53.5zM330 174q-18 0 -31 12.5t-13 30.5v306h-26v45h181v-45h-26v-163h-18v163
h-93v-306q0 -10 7.5 -18t18.5 -8v-17zM331 374h40v-59l-40 -82v141zM769 209q-5 -11 -13.5 -19.5t-14 -11t-7.5 -2.5h-347q-28 5 -38 22q-6 13 -4 27.5t5.5 24t5.5 11.5l123 180v111l-42 42h254l-45 -42v-109q99 -137 121 -184q12 -29 2 -50z" />
    <glyph glyph-name="huanbaojiances" unicode="&#xe900;" 
d="M512 879q-100 0 -192 -39.5t-158 -105.5t-105.5 -158t-39.5 -192t39.5 -192t105.5 -158t158 -105.5t192 -39.5t192 39.5t158 105.5t105.5 158t39.5 192t-39.5 192t-105.5 158t-158 105.5t-192 39.5zM512 -93q-97 0 -185.5 37.5t-152.5 101.5t-101.5 152.5t-37.5 185.5
t37.5 185.5t101.5 152.5t152.5 101.5t185.5 37.5t185.5 -37.5t152.5 -101.5t101.5 -152.5t37.5 -185.5t-37.5 -185.5t-101.5 -152.5t-152.5 -101.5t-185.5 -37.5zM628 436l-1 2v121l8 7h-147l8 -7v-123l-125 -184q-13 -28 -5 -45q6 -11 25 -14h340q17 9 24 23q6 17 -3 38
q-12 23 -42.5 68.5t-55 78.5t-26.5 35zM538 497l47 14v-120h29v-14h-76v14h30v99l-30 -7v14zM698 212h-281q-17 0 -22 9t-2 19l3 9l43 76h248l40 -75q4 -16 -3.5 -25.5t-16.5 -10.5zM512 783q-108 0 -200 -53.5t-145.5 -145.5t-53.5 -200t53.5 -200t145.5 -145.5t200 -53.5
t200 53.5t145.5 145.5t53.5 200t-53.5 200t-145.5 145.5t-200 53.5zM330 174q-18 0 -31 12.5t-13 30.5v306h-26v45h181v-45h-26v-163h-18v163h-93v-306q0 -10 7.5 -18t18.5 -8v-17zM331 374h40v-59l-40 -82v141zM769 209q-5 -11 -13.5 -19.5t-14 -11t-7.5 -2.5h-347
q-28 5 -38 22q-6 13 -4 27.5t5.5 24t5.5 11.5l123 180v111l-42 42h254l-45 -42v-109q99 -137 121 -184q12 -29 2 -50z" />
    <glyph glyph-name="fangshuigcyanshous" unicode="&#xe901;" 
d="M512 887q-102 0 -195.5 -39.5t-161 -107t-107 -161t-39.5 -195.5t39.5 -195.5t107 -161t161 -107t195.5 -39.5t195.5 39.5t161 107t107 161t39.5 195.5t-39.5 195.5t-107 161t-161 107t-195.5 39.5zM512 -102q-98 0 -188 38.5t-155.5 104t-104 155.5t-38.5 188t38.5 188
t104 155.5t155.5 104t188 38.5t188 -38.5t155.5 -104t104 -155.5t38.5 -188t-38.5 -188t-104 -155.5t-155.5 -104t-188 -38.5zM512 783q-108 0 -200 -53.5t-145.5 -145.5t-53.5 -200t53.5 -200t145.5 -145.5t200 -53.5t200 53.5t145.5 145.5t53.5 200t-53.5 200
t-145.5 145.5t-200 53.5zM703 532q-5 -23 -5 -28t-3.5 -8.5t-7.5 -3.5t-7 3.5t-3 8.5q-2 7 26 28zM653 587q-6 -23 -6 -28t-3 -8.5t-7 -3.5t-7 3.5t-3 8.5q-2 7 26 28zM614 526q-5 -22 -5 -27.5t-3 -9t-7 -3.5t-7.5 3.5t-3.5 9.5q-1 5 26 27zM587 622q-6 -23 -6 -28t-3 -8.5
t-7 -3.5t-7 3.5t-3 8.5q-2 5 26 28zM554 566q-6 -22 -6 -27.5t-3 -9t-7 -3.5t-7 3.5t-3 8.5q-2 6 26 28zM463 549q-5 -23 -5 -28t-3 -8.5t-7 -3.5t-7.5 3.5t-3.5 8.5zM696 365q-10 22 -31 22q-23 0 -32 -22h-15q-10 22 -31 22q-23 0 -32 -20h-15q-6 16 -25 19q4 -163 4 -183
q0 -19 -5 -32t-13 -17t-13 -5t-12 -1h-2q-21 0 -29.5 12.5t-8.5 27.5h10q0 -9 6.5 -19t21.5 -9q28 2 28 47v179q-16 -3 -25 -18h-17q-9 18 -30 18q-18 0 -29 -18h-19q-9 18 -30 18q-18 0 -29 -18h-5q11 34 34.5 57.5t52 34t50.5 15t45 4.5v28h10v-28q15 0 29.5 -1t40 -8
t45.5 -18.5t40.5 -35t32.5 -55.5h-2v4z" />
    <glyph glyph-name="jungongs" unicode="&#xe902;" 
d="M512 879q-100 0 -192 -39.5t-158 -105.5t-105.5 -158t-39.5 -192t39.5 -192t105.5 -158t158 -105.5t192 -39.5t192 39.5t158 105.5t105.5 158t39.5 192t-39.5 192t-105.5 158t-158 105.5t-192 39.5zM512 -93q-97 0 -185.5 37.5t-152.5 101.5t-101.5 152.5t-37.5 185.5
t37.5 185.5t101.5 152.5t152.5 101.5t185.5 37.5t185.5 -37.5t152.5 -101.5t101.5 -152.5t37.5 -185.5t-37.5 -185.5t-101.5 -152.5t-152.5 -101.5t-185.5 -37.5zM642 566h-312v-78h312v78zM408 514h-52v28h52v-28zM512 514h-26v28h28v-28h-2zM564 514h-26v28h28v-28h-2z
M618 514h-26v28h26v-28zM512 783q-108 0 -200 -53.5t-145.5 -145.5t-53.5 -200t53.5 -200t145.5 -145.5t200 -53.5t200 53.5t145.5 145.5t53.5 200t-53.5 200t-145.5 145.5t-200 53.5zM512 254h-207v337h361v-207h-24v78h-312v-78h307v-2h-9q-41 0 -74 -28h-224v-78h182v-22
zM618 436v-26h-26v28h26v-2zM564 436v-26h-26v28h26v-2zM512 436v-26h-26v28h26v-2zM408 436v-26h-52v28h52v-2zM408 330v-26h-52v26h52zM512 304h-26v26h28v-26h-2zM630 177q-36 0 -62 26.5t-26 62.5t26 62t62 26t62.5 -26t26.5 -62t-26.5 -62.5t-62.5 -26.5zM614 268
l-24 24l-24 -24l52 -54l76 76l-28 28z" />
    <glyph glyph-name="kaigongyishis" unicode="&#xe903;" 
d="M512 887q-102 0 -195.5 -39.5t-161 -107t-107 -161t-39.5 -195.5t39.5 -195.5t107 -161t161 -107t195.5 -39.5t195.5 39.5t161 107t107 161t39.5 195.5t-39.5 195.5t-107 161t-161 107t-195.5 39.5zM512 -102q-98 0 -188 38.5t-155.5 104t-104 155.5t-38.5 188t38.5 188
t104 155.5t155.5 104t188 38.5t188 -38.5t155.5 -104t104 -155.5t38.5 -188t-38.5 -188t-104 -155.5t-155.5 -104t-188 -38.5zM512 783q-108 0 -200 -53.5t-145.5 -145.5t-53.5 -200t53.5 -200t145.5 -145.5t200 -53.5t200 53.5t145.5 145.5t53.5 200t-53.5 200
t-145.5 145.5t-200 53.5zM524 591q9 8 19 -2l111 -127q9 -9 -1 -19q-9 -9 -20 2l-111 126q-5 12 2 20zM441 262.5q-9 -8.5 -19 1.5l-111 127q-9 9 1 19q9 9 19 -2l112 -126q7 -11 -2 -19.5zM712 183l-6 -6q-9 -9 -19 0l-168 181l-59 -50l-102 118l140 119l103 -118l-58 -48
l169 -177q9 -10 0 -19z" />
    <glyph glyph-name="yixiangdingjins" unicode="&#xe905;" 
d="M512 879q-100 0 -192 -39.5t-158 -105.5t-105.5 -158t-39.5 -192t39.5 -192t105.5 -158t158 -105.5t192 -39.5t192 39.5t158 105.5t105.5 158t39.5 192t-39.5 192t-105.5 158t-158 105.5t-192 39.5zM512 -93q-97 0 -185.5 37.5t-152.5 101.5t-101.5 152.5t-37.5 185.5
t37.5 185.5t101.5 152.5t152.5 101.5t185.5 37.5t185.5 -37.5t152.5 -101.5t101.5 -152.5t37.5 -185.5t-37.5 -185.5t-101.5 -152.5t-152.5 -101.5t-185.5 -37.5zM512 783q-108 0 -200 -53.5t-145.5 -145.5t-53.5 -200t53.5 -200t145.5 -145.5t200 -53.5t200 53.5
t145.5 145.5t53.5 200t-53.5 200t-145.5 145.5t-200 53.5zM252 377l-33 17q-5 3 -6.5 8t-0.5 9l1 4q86 179 86 186q3 6 7.5 8t7.5 0l4 -1l36 -19q5 -3 6.5 -9t0.5 -10l-2 -4l-83 -182q-9 -15 -24 -7zM722 289q-10 -21 -38 -21q3 -21 -11 -33q-1 -2 -3.5 -4.5t-11.5 -5.5
t-21 -1q2 -19 -16 -31q-2 -2 -6.5 -4t-17.5 -2t-26 10q-1 -3 -2.5 -6.5t-9 -10t-17.5 -8.5q-18 -3 -28 7q-1 -1 -2.5 -3.5t-6 -7.5t-9.5 -8t-12.5 -2.5t-14.5 6.5q-2 1 -4.5 4t-5.5 12t4 18q-1 -1 -2.5 -3.5t-7 -7.5t-11 -7.5t-13.5 -0.5t-16 11q-2 1 -3.5 3.5t-4 12
t5.5 20.5l-2.5 -2.5t-6 -5t-9.5 -4.5t-12.5 1.5t-14.5 8.5q-2 2 -3.5 5t-4 13.5t4.5 21.5l-2.5 -2.5t-6.5 -4.5t-10 -4t-13.5 1t-16.5 9q-2 1 -3.5 4t-3.5 12.5t5 19.5l23 33l-33 45l12 24l40 -52q26 7 35 -10q1 -1 2 -3.5t3 -10t0 -16.5q3 -3 5 -7q18 6 28 -8q1 -1 2.5 -3
t4 -8.5t2.5 -13.5q3 -3 8 -6q18 5 26 -7q11 -11 11 -23l15 -12q7 -5 18 -14l14 -10q1 -1 2.5 -1.5t5.5 -1t7 0.5t5.5 5t3.5 10l-56 44q0 2 -1 4.5t2.5 7t12.5 3.5l82 -60q14 -5 21 7q8 12 -4 24l-87 66q0 2 -1 5t2 8t12 4l102 -76q14 -5 21 5q8 12 0 23l-115 86q-1 3 -1.5 6
t3 7.5t12.5 2.5l118 -87q18 -5 26 9q11 16 -3 29l-165 151q-4 2 -9.5 4t-18.5 -2t-21 -19q0 -2 -0.5 -5.5t-4 -13t-9.5 -17.5t-17.5 -15.5t-27.5 -10.5q-4 0 -10 1.5t-14.5 9t-4.5 18.5q10 16 10 49q2 22 17 43h-59l14 28h91q4 2 10.5 6t23.5 9.5t30 3.5q36 -2 47 -9
q5 -1 13.5 -3.5t27.5 -6t28 -2.5l82 -173l-12 -32q-1 1 0.5 -1.5t4 -7.5t4 -11.5t0.5 -15.5t-6 -17zM802 393l-35 -16q-6 -2 -10 0t-7 5l-2 4q-83 180 -87 184q-2 7 -0.5 11t4.5 6l3 2l37 19q13 5 20 -11l86 -180q8 -17 -9 -24z" />
    <glyph glyph-name="liangfang" unicode="&#xe906;" 
d="M512 879q-100 0 -192 -39.5t-158 -105.5t-105.5 -158t-39.5 -192t39.5 -192t105.5 -158t158 -105.5t192 -39.5t192 39.5t158 105.5t105.5 158t39.5 192t-39.5 192t-105.5 158t-158 105.5t-192 39.5zM512 -93q-97 0 -185.5 37.5t-152.5 101.5t-101.5 152.5t-37.5 185.5
t37.5 185.5t101.5 152.5t152.5 101.5t185.5 37.5t185.5 -37.5t152.5 -101.5t101.5 -152.5t37.5 -185.5t-37.5 -185.5t-101.5 -152.5t-152.5 -101.5t-185.5 -37.5zM512 783q-108 0 -200 -53.5t-145.5 -145.5t-53.5 -200t53.5 -200t145.5 -145.5t200 -53.5t200 53.5
t145.5 145.5t53.5 200t-53.5 200t-145.5 145.5t-200 53.5zM243 233h-9l7 78l19 -7zM686 276q0 -19 -13 -32.5t-31 -13.5h-243q-8 0 -13.5 5.5t-5.5 13.5l-109 31l3 17l106 -31v35q0 9 5.5 15t13.5 6h7q-5 77 4 166q1 21 13.5 35t29.5 12q111 -9 189 -33q44 -13 44 -47v-179z
M548.5 486q-39.5 0 -71.5 -31q-29 -32 -29 -76q0 -47 29 -77q29 -31 71 -31q40 0 72 31q29 33 29 77q0 47 -29 76q-32 31 -71.5 31zM595 325q-19 -23 -48 -23q-26 0 -49 23q-19 22 -19 52t19 52q18 21 49 21q25 0 48 -21q19 -22 19 -52q3 -30 -19 -52z" />
    <glyph glyph-name="shuidianyanshous" unicode="&#xe907;" 
d="M512 879q-100 0 -192 -39.5t-158 -105.5t-105.5 -158t-39.5 -192t39.5 -192t105.5 -158t158 -105.5t192 -39.5t192 39.5t158 105.5t105.5 158t39.5 192t-39.5 192t-105.5 158t-158 105.5t-192 39.5zM512 -93q-97 0 -185.5 37.5t-152.5 101.5t-101.5 152.5t-37.5 185.5
t37.5 185.5t101.5 152.5t152.5 101.5t185.5 37.5t185.5 -37.5t152.5 -101.5t101.5 -152.5t37.5 -185.5t-37.5 -185.5t-101.5 -152.5t-152.5 -101.5t-185.5 -37.5zM512 783q-108 0 -200 -53.5t-145.5 -145.5t-53.5 -200t53.5 -200t145.5 -145.5t200 -53.5t200 53.5
t145.5 145.5t53.5 200t-53.5 200t-145.5 145.5t-200 53.5zM529 488l87 -87l-120 -119l-86 86zM316 188v0q-11 10 -11 24.5t11 23.5l101 101l48 -48l-101 -101q-10 -11 -24 -11t-24 11zM708 532l-101 -101l-48 48l101 101q10 11 24 11t24 -11v0q11 -10 11 -24t-11 -24z" />
    <glyph glyph-name="tanhaos" unicode="&#xe909;" horiz-adv-x="1060" 
d="M530 878q-100 0 -191.5 -39t-158 -105.5t-106 -158t-39.5 -191.5t39.5 -191.5t106 -158t158 -105.5t191.5 -39t191.5 39t157.5 105.5t105.5 158t39.5 191.5t-39.5 191.5t-105.5 158t-157.5 105.5t-191.5 39v0zM530 31q-29 0 -50 20.5t-21 50t21 50t50 20.5t49.5 -20.5
t20.5 -50t-20.5 -50t-49.5 -20.5v0zM621 564v0v0v0v0v0v0q0 -3 -60 -282v0v0q-5 -32 -31 -32t-32 35q-3 10 -18 78t-28.5 131l-13.5 63v0v0v0v0v0v0v0v0v0v0v0v0v0v0v0v0v0v0v0v0v0v0v0q0 4 -2 10t-2 8q0 39 28 67t67.5 28t67.5 -28t28 -67q-4 -7 -4 -11v0zM621 564z" />
    <glyph glyph-name="wamuyanshous" unicode="&#xe90a;" 
d="M512 879q-100 0 -192 -39.5t-158 -105.5t-105.5 -158t-39.5 -192t39.5 -192t105.5 -158t158 -105.5t192 -39.5t192 39.5t158 105.5t105.5 158t39.5 192t-39.5 192t-105.5 158t-158 105.5t-192 39.5zM512 -93q-97 0 -185.5 37.5t-152.5 101.5t-101.5 152.5t-37.5 185.5
t37.5 185.5t101.5 152.5t152.5 101.5t185.5 37.5t185.5 -37.5t152.5 -101.5t101.5 -152.5t37.5 -185.5t-37.5 -185.5t-101.5 -152.5t-152.5 -101.5t-185.5 -37.5zM512 769q-105 0 -193.5 -51.5t-140 -140t-51.5 -193.5t51.5 -193.5t140 -140t193.5 -51.5t193.5 51.5t140 140
t51.5 193.5t-51.5 193.5t-140 140t-193.5 51.5zM378 571h264l90 -128h-444zM288 197l61 69h319l64 -69h-444zM271 306l74 99h354l53 -99h-481z" />
    <glyph glyph-name="jingxuangongsis" unicode="&#xe90c;" 
d="M512 879q-100 0 -192 -39.5t-158 -105.5t-105.5 -158t-39.5 -192t39.5 -192t105.5 -158t158 -105.5t192 -39.5t192 39.5t158 105.5t105.5 158t39.5 192t-39.5 192t-105.5 158t-158 105.5t-192 39.5zM512 -93q-97 0 -185.5 37.5t-152.5 101.5t-101.5 152.5t-37.5 185.5
t37.5 185.5t101.5 152.5t152.5 101.5t185.5 37.5t185.5 -37.5t152.5 -101.5t101.5 -152.5t37.5 -185.5t-37.5 -185.5t-101.5 -152.5t-152.5 -101.5t-185.5 -37.5zM512 783q-108 0 -200 -53.5t-145.5 -145.5t-53.5 -200t53.5 -200t145.5 -145.5t200 -53.5t200 53.5
t145.5 145.5t53.5 200t-53.5 200t-145.5 145.5t-200 53.5zM687 155q-20 0 -34 14t-14 34q0 17 11 30t27 17v158q0 9 -9 9h-147v-163q17 -3 28.5 -16t11.5 -31q0 -20 -14 -34.5t-35 -14.5t-35 14t-14 35q0 17 11.5 30t27.5 17v163h-150q-8 0 -8 -9v-154q17 -3 28.5 -16
t11.5 -31q0 -20 -14 -34.5t-35 -14.5t-35 14t-14 35q0 17 11.5 30t27.5 17v154q0 11 7.5 18.5t18.5 7.5h152v51q-23 4 -39 22t-16 42q0 27 19 46.5t46.5 19.5t47 -19.5t19.5 -46.5q0 -25 -16.5 -43.5t-41.5 -20.5v-51h150q10 0 18 -7.5t8 -18.5v-158q17 -2 28.5 -15.5
t11.5 -31.5q-2 -20 -16.5 -34t-34.5 -14zM455 547.5q0 -23.5 17 -40.5t40 -17t40 17t17 40.5t-17 40t-40 16.5t-40 -16.5t-17 -40zM512 582q14 0 24.5 -10.5t10.5 -24.5t-10.5 -24.5t-24.5 -10.5t-24.5 10.5t-10.5 24.5t10.5 24.5t24.5 10.5zM512 245q-16 0 -28 -11.5
t-12 -28.5t11.5 -28.5t28.5 -11.5q16 0 28 12t12 28.5t-12 28t-28 11.5zM512 181q-10 0 -17 7t-7 17.5t7 17.5t17 7t17 -7t7 -17.5t-7 -17.5t-17 -7zM687 242q-16 0 -28 -12t-12 -28q0 -17 11.5 -28.5t28.5 -11.5t28.5 11.5t11.5 28.5t-11.5 28.5t-28.5 11.5zM687.5 177
q-10.5 0 -17.5 7t-7 17.5t7 17.5t17.5 7t17.5 -7t7 -17q1 -9 -6.5 -17t-18 -8zM375 207q0 16 -11.5 28t-28.5 12t-28.5 -11.5t-11.5 -28.5t11.5 -28.5t28.5 -11.5t28.5 11.5t11.5 28.5zM336.5 181q-10.5 0 -17.5 7t-7 17.5t7 17.5t17.5 7t17.5 -7t7 -17.5t-7 -17.5t-17.5 -7
z" />
    <glyph glyph-name="youqiyanshous" unicode="&#xe90e;" 
d="M512 879q-100 0 -192 -39.5t-158 -105.5t-105.5 -158t-39.5 -192t39.5 -192t105.5 -158t158 -105.5t192 -39.5t192 39.5t158 105.5t105.5 158t39.5 192t-39.5 192t-105.5 158t-158 105.5t-192 39.5zM512 -93q-97 0 -185.5 37.5t-152.5 101.5t-101.5 152.5t-37.5 185.5
t37.5 185.5t101.5 152.5t152.5 101.5t185.5 37.5t185.5 -37.5t152.5 -101.5t101.5 -152.5t37.5 -185.5t-37.5 -185.5t-101.5 -152.5t-152.5 -101.5t-185.5 -37.5zM512 776q-107 0 -197 -52.5t-142.5 -142.5t-52.5 -197t52.5 -197t142.5 -142.5t197 -52.5t197 52.5
t142.5 142.5t52.5 197t-52.5 197t-142.5 142.5t-197 52.5zM666 176l-126 126l21 21l-37 37q-9 9 -9 21.5t9 21.5l97 97q10 10 0 23l-36 36q-10 10 -23 0l-5 -5l16 -16q10 -10 10 -25t-10 -27l-169 -168q-10 -10 -25 -10t-27 10l-15 16l-6 -11l-10 11l10 10l-15 16
q-11 10 -11 25t11 27l168 168q11 11 26 11t26 -11l16 -15l5 5q9 9 21.5 9t22.5 -9l36 -37q9 -9 9 -21.5t-9 -21.5l-90 -90l-11 -7q-9 -10 0 -23l37 -36l21 20l126 -126z" />
    <glyph glyph-name="dingdanshenhes" unicode="&#xe910;" 
d="M512 879q-100 0 -192 -39.5t-158 -105.5t-105.5 -158t-39.5 -192t39.5 -192t105.5 -158t158 -105.5t192 -39.5t192 39.5t158 105.5t105.5 158t39.5 192t-39.5 192t-105.5 158t-158 105.5t-192 39.5zM512 -93q-97 0 -185.5 37.5t-152.5 101.5t-101.5 152.5t-37.5 185.5
t37.5 185.5t101.5 152.5t152.5 101.5t185.5 37.5t185.5 -37.5t152.5 -101.5t101.5 -152.5t37.5 -185.5t-37.5 -185.5t-101.5 -152.5t-152.5 -101.5t-185.5 -37.5zM512 783q-108 0 -200 -53.5t-145.5 -145.5t-53.5 -200t53.5 -200t145.5 -145.5t200 -53.5t200 53.5
t145.5 145.5t53.5 200t-53.5 200t-145.5 145.5t-200 53.5zM358 200v358h112v34h110v-34h118v-254q-23 26 -58 26q-22 0 -41 -12.5t-30 -32.5h-154q-9 0 -9 -8.5t9 -8.5h149q-2 -5 -2 -16q0 -31 21 -52h-225zM734 157q-6 -6 -12 0l-47 46l-2 2q-13 -10 -33 -10q-23 0 -40 17
t-17 40.5t17 40t40.5 16.5t40.5 -16.5t17 -40.5q0 -19 -12 -35q1 0 1 -1l47 -47q6 -6 0 -12zM415 476h225q9 0 9 8.5t-9 8.5h-225q-9 0 -9 -8.5t9 -8.5zM415 407h225q9 0 9 8.5t-9 8.5h-225q-9 0 -9 -8.5t9 -8.5zM415 337h225q9 0 9 8.5t-9 8.5h-225q-9 0 -9 -8.5t9 -8.5z
M601 252.5q0 -16.5 11.5 -28.5t28 -12t28 12t11.5 28.5t-11.5 28t-28 11.5t-28 -11.5t-11.5 -28z" />
    <glyph glyph-name="shuidiangcyanshous" unicode="&#xe908;" 
d="M467 228l-2 2q-36 17 -50 57.5t-2 77.5v2l12 -6v-1q-11 -32 1.5 -67.5t43.5 -50.5l2 -2zM540 441q2 0 2 -3l-11 -71l33 7q2 0 4 -2v-4l-68 -93l-2 -2h-2q-1 0 -1 3l10 66l-36 -3q-2 0 -4 2v3l71 96q2 1 4 1zM874.5 721q-91.5 98 -217.5 136.5t-255 9.5t-227 -120.5
t-136.5 -217.5t-9.5 -255t120.5 -227t217.5 -136.5t255 -9.5t227 120.5t136.5 217.5t9.5 255t-120.5 227zM837 33q-95 -88 -219.5 -116t-246.5 9.5t-210 132.5t-116 219.5t9.5 246.5t133 210t220 116t246 -9.5t209.5 -132.5t116 -219.5t-9.5 -246.5t-132.5 -210z
M800.5 651.5q-72.5 78.5 -173 109t-202.5 7.5t-180.5 -95.5t-109 -173t-7.5 -202.5t95.5 -180.5t173 -109t202.5 -7.5t180 96t108.5 172.5t8 202t-95 181zM512 165q-65 0 -111.5 46.5t-46.5 111.5q0 30 21 75.5t54.5 93.5t48.5 68.5t29 36.5l5 7l5 -7q10 -9 43.5 -54
t71.5 -113.5t38 -106.5q0 -65 -46.5 -111.5t-111.5 -46.5z" />
    <glyph glyph-name="weibaoss" unicode="&#xe920;" 
d="M512 879q-100 0 -192 -39.5t-158 -105.5t-105.5 -158t-39.5 -192t39.5 -192t105.5 -158t158 -105.5t192 -39.5t192 39.5t158 105.5t105.5 158t39.5 192t-39.5 192t-105.5 158t-158 105.5t-192 39.5zM512 -93q-97 0 -185.5 37.5t-152.5 101.5t-101.5 152.5t-37.5 185.5
t37.5 185.5t101.5 152.5t152.5 101.5t185.5 37.5t185.5 -37.5t152.5 -101.5t101.5 -152.5t37.5 -185.5t-37.5 -185.5t-101.5 -152.5t-152.5 -101.5t-185.5 -37.5zM484 462q-1 -2 -1.5 -5.5t-1.5 -4.5q0 -3 0.5 -6.5t0.5 -4.5q3 -4 7 -7q4 -1 14 -5q1 0 3.5 -1t3.5 -1v52
q-5 0 -7 -1q-5 -2 -12 -5zM573 328q7 7 8 11q4 7 4 12q0 9 -4 12v0q-2 6 -8 9q-11 5 -16 5q-2 0 -5.5 1t-4.5 1v-63q2 0 5 1l3 1l8 4t6 3.5t4 2.5zM512 783q-108 0 -200 -53.5t-145.5 -145.5t-53.5 -200t53.5 -200t145.5 -145.5t200 -53.5t200 53.5t145.5 145.5t53.5 200
t-53.5 200t-145.5 145.5t-200 53.5zM512 512v9q0 4 3.5 7.5t6.5 3.5h18q3 0 6.5 -3.5t3.5 -7.5v-9q7 0 21 -3l26 -10q13 -10 17 -20q7 -9 7 -26q0 -5 -1 -7q-4 -3 -7 -3h-25q-3 0 -6.5 3.5t-3.5 6.5q0 7 -2 11q-1 2 -3.5 4.5t-3.5 4.5v0q-10 5 -12 5q-1 0 -3 0.5t-4 0.5v-59
q18 -3 26 -6q17 -6 28 -13q10 -6 19 -20q7 -12 7 -32q0 -16 -9 -27q-9 -12 -20 -20q-11 -6 -28 -12q-14 -3 -21 -3v-9q0 -3 -3.5 -6.5t-6.5 -3.5h-18q-3 0 -6.5 3.5t-3.5 6.5v9q-30 3 -49 14q-22 12 -31 41v0q0 2 -1 4.5t-1 4.5v7q0 5 2 7q3 3 7 3h24q4 0 7.5 -3.5t3.5 -6.5
q0 -7 3 -14q2 -5 9 -12q6 -6 15 -9q2 -1 6.5 -1.5t5.5 -1.5v67q-2 1 -6.5 2t-8 2t-5.5 2q-16 5 -26 10q-14 11 -19 19q-7 12 -7 28q0 17 7 26q10 14 19 19q5 4 26 12q5 5 17 5zM772 335v0l-5 -71q0 -10 -10 -10q-8 0 -11 9v43v0q-52 -63 -133 -99q-110 -49 -211 -29
t-136.5 97t17 166t161.5 137q25 11 37 14q1 2 7 2q7 0 12 -5.5t5 -11.5q0 -8 -5 -13t-12 -5h3q-1 -1 -3.5 -1.5t-3.5 -1.5q-91 -40 -135 -114t-15.5 -136.5t112.5 -78t175 26.5q60 28 103 71h-2v0h-36q-11 0 -11 9q0 10 11 10l79 7h4v0l2 -2v0q1 -1 1 -3v0v-4v-7z" />
    <glyph glyph-name="huanbaozhilifuces" unicode="&#xe911;" 
d="M512 879q-100 0 -192 -39.5t-158 -105.5t-105.5 -158t-39.5 -192t39.5 -192t105.5 -158t158 -105.5t192 -39.5t192 39.5t158 105.5t105.5 158t39.5 192t-39.5 192t-105.5 158t-158 105.5t-192 39.5zM512 -93q-97 0 -185.5 37.5t-152.5 101.5t-101.5 152.5t-37.5 185.5
t37.5 185.5t101.5 152.5t152.5 101.5t185.5 37.5t185.5 -37.5t152.5 -101.5t101.5 -152.5t37.5 -185.5t-37.5 -185.5t-101.5 -152.5t-152.5 -101.5t-185.5 -37.5zM512 783q-108 0 -200 -53.5t-145.5 -145.5t-53.5 -200t53.5 -200t145.5 -145.5t200 -53.5t200 53.5
t145.5 145.5t53.5 200t-53.5 200t-145.5 145.5t-200 53.5zM418 358h-5q-13 0 -16 12l-6 26l-112 -196v-7l4 -2h121q7 0 11.5 -4.5t4.5 -11t-4.5 -11t-11.5 -4.5h-121q-18 0 -30 14q-10 15 -5 38v2l116 201l-31 -8h-5q-13 0 -16 12q-3 16 11 19l66 19q4 2 12 -2q7 -3 7 -10
l19 -66q4 -7 1 -12.5t-10 -8.5zM430 499q-12 9 -7 22l61 109q12 21 28 21v0q17 0 28 -19l104 -186l12 33q6 15 21 9t9 -21l-25 -64q-2 -10 -14 -10q-3 0 -5 1l-64 25q-15 6 -9 21q6 14 21 8l21 -8l-97 175l-63 -110q-2 -6 -8.5 -7.5t-12.5 1.5zM771 174q-11 -16 -30 -16
h-206l13 -12q6 -4 6 -10.5t-4 -11.5q-5 -6 -12 -6q-3 0 -10 4l-52 45q-6 4 -6 11t4 12l45 52q4 5 10.5 5t12.5 -4q5 -3 5 -10t-4 -12l-26 -30h224h2q2 6 -2 12l-75 134q-7 14 7 23q15 7 23 -7l75 -136q12 -26 0 -43z" />
    <glyph glyph-name="zhidingguanjias" unicode="&#xe912;" 
d="M512 879q-100 0 -192 -39.5t-158 -105.5t-105.5 -158t-39.5 -192t39.5 -192t105.5 -158t158 -105.5t192 -39.5t192 39.5t158 105.5t105.5 158t39.5 192t-39.5 192t-105.5 158t-158 105.5t-192 39.5zM512 -93q-97 0 -185.5 37.5t-152.5 101.5t-101.5 152.5t-37.5 185.5
t37.5 185.5t101.5 152.5t152.5 101.5t185.5 37.5t185.5 -37.5t152.5 -101.5t101.5 -152.5t37.5 -185.5t-37.5 -185.5t-101.5 -152.5t-152.5 -101.5t-185.5 -37.5zM512 368q36 0 63 40t27 84q0 26 -1 38q-3 16 -13 26q-5 5 -12.5 6t-13.5 -4q-33 -30 -90 -39q-5 0 -5 4
q-3 2 2 7l1 2q5 4 2 10q-3 7 -10 3h-2q-17 -5 -24 -20q-7 -10 -9 -21q-2 -4 -2 -9q-2 -46 24 -86.5t63 -40.5zM340 243v-67q0 -5 4.5 -9.5t9.5 -4.5h31v166q-45 -33 -45 -85zM512 348q-17 0 -35 8l-47 -12l73 -184h18l74 182l-47 12q-24 -6 -36 -6zM512 207q-12 0 -12 12
t12 12t12 -12t-12 -12zM512 250q-12 0 -12 12.5t12 12.5t12 -12q0 -5 -3.5 -9t-8.5 -4zM561 328v-24q0 -5 -4.5 -8.5t-8.5 -1.5l-22 7q-5 -6 -14 -6t-14 6l-22 -7q-6 -2 -9.5 1.5t-3.5 8.5v24q0 6 4.5 9t8.5 2l22 -7h2q5 5 13.5 5t14.5 -5h1l23 7q3 0 6 -3t3 -8zM639 327
v-165h31q5 0 9.5 4.5t4.5 9.5v0v67q0 53 -45 84zM512 783q-108 0 -200 -53.5t-145.5 -145.5t-53.5 -200t53.5 -200t145.5 -145.5t200 -53.5t200 53.5t145.5 145.5t53.5 200t-53.5 200t-145.5 145.5t-200 53.5zM705 176q0 -15 -10.5 -25t-24.5 -10h-316q-14 0 -24.5 10
t-10.5 25v67q0 43 26 76.5t68 43.5l40 11q-26 23 -40 59q-24 6 -26 38q-2 30 14 36l-0.5 3t-1 7.5t-0.5 10.5t0.5 13t2 14.5t4.5 15.5t7 14q13 22 35.5 35.5t46.5 9.5h24q46 6 73 -19.5t29 -80.5q0 -4 1 -11t1 -10q18 -6 16 -38q-3 -32 -28 -38q-14 -37 -40 -58l40 -10
q42 -11 68 -44t26 -76v-69z" />
    <glyph glyph-name="anzhuangyanshous" unicode="&#xe913;" 
d="M512 879q-100 0 -192 -39.5t-158 -105.5t-105.5 -158t-39.5 -192t39.5 -192t105.5 -158t158 -105.5t192 -39.5t192 39.5t158 105.5t105.5 158t39.5 192t-39.5 192t-105.5 158t-158 105.5t-192 39.5zM512 -93q-97 0 -185.5 37.5t-152.5 101.5t-101.5 152.5t-37.5 185.5
t37.5 185.5t101.5 152.5t152.5 101.5t185.5 37.5t185.5 -37.5t152.5 -101.5t101.5 -152.5t37.5 -185.5t-37.5 -185.5t-101.5 -152.5t-152.5 -101.5t-185.5 -37.5zM512 783q-108 0 -200 -53.5t-145.5 -145.5t-53.5 -200t53.5 -200t145.5 -145.5t200 -53.5t200 53.5
t145.5 145.5t53.5 200t-53.5 200t-145.5 145.5t-200 53.5zM725 212q1 -2 1.5 -6t-0.5 -14.5t-5 -18.5t-16 -14t-30 -6l-163 175l-161 -171h-4.5t-10.5 0.5t-13.5 3t-14 7t-11.5 12.5t-6 19.5t2 28.5l169 154l-84 91l-33 -27q-22 -27 -40 -71q-1 3 -2 8.5t-2.5 21.5t0 32
t10 37.5t24.5 39.5l87 99l62 -61l-67 -48l86 -82l49 45q-1 3 -2 7t-3 15.5t-2.5 21.5t0.5 21t5 17q1 1 2.5 3.5t6.5 9t11 12t15 12.5t19 10t23.5 5.5t26.5 -2.5l-12 -28l-29 -22l3 -61l52 -14l61 59q1 -3 2.5 -8.5t2 -20.5t-3.5 -28.5t-18 -30t-37 -26.5q-31 -5 -74 0
l-46 -45zM312 200q0 -8 6 -13.5t13.5 -5.5t13.5 5.5t6 13.5t-6 13.5t-13.5 5.5t-13.5 -5.5t-6 -13.5z" />
    <glyph glyph-name="yuyueliangfangs" unicode="&#xe915;" 
d="M512 879q-100 0 -192 -39.5t-158 -105.5t-105.5 -158t-39.5 -192t39.5 -192t105.5 -158t158 -105.5t192 -39.5t192 39.5t158 105.5t105.5 158t39.5 192t-39.5 192t-105.5 158t-158 105.5t-192 39.5zM512 -93q-97 0 -185.5 37.5t-152.5 101.5t-101.5 152.5t-37.5 185.5
t37.5 185.5t101.5 152.5t152.5 101.5t185.5 37.5t185.5 -37.5t152.5 -101.5t101.5 -152.5t37.5 -185.5t-37.5 -185.5t-101.5 -152.5t-152.5 -101.5t-185.5 -37.5zM512 783q-108 0 -200 -53.5t-145.5 -145.5t-53.5 -200t53.5 -200t145.5 -145.5t200 -53.5t200 53.5
t145.5 145.5t53.5 200t-53.5 200t-145.5 145.5t-200 53.5zM486 563q88 0 88 -87q0 -57 -24.5 -91t-63.5 -34t-64 34t-25 91q-2 87 89 87zM640 164h-310q-12 4 -7 32.5t18 60.5l13 33q4 9 17 16l49 22l24 20l38 -39l-15 -109v-2l17 -24h2h2l17 24v2l-16 109l39 39l24 -20
l49 -22q15 -8 17 -16q0 1 3 -8q44 -118 19 -118zM656 372q-38 0 -73 26q7 17 9 26q26 -26 64 -26t64 26.5t26 63.5q0 38 -26.5 64t-63.5 26q-49 0 -75 -40q-1 3 -4.5 7.5t-5.5 6.5q-3 4 -7 6q34 45 92 45q48 0 82 -34t34 -83q0 -47 -34 -80.5t-82 -33.5zM710 493q9 0 9 -8.5
t-9 -8.5h-54q-9 0 -9 9v67q0 9 9 9t9 -9v-59h45z" />
    <glyph glyph-name="wodegongdis" unicode="&#xe916;" 
d="M430 377l-3 -3q-8 -5 -8.5 -11.5t4.5 -9.5q5 -2 11.5 2t9.5 12v3q2 8 -2 10t-12 -3v0zM372 480q-7 0 -12 -4.5t-5 -9.5q0 -17 17 0v0q8 5 8 9.5t-8 4.5v0zM512 879q-101 0 -192.5 -39.5t-157.5 -105.5t-105.5 -157.5t-39.5 -192.5t39.5 -192.5t105.5 -157.5t157.5 -105.5
t192.5 -39.5t192.5 39.5t157.5 105.5t105.5 157.5t39.5 192.5t-39.5 192.5t-105.5 157.5t-157.5 105.5t-192.5 39.5v0zM563 606q26 0 45.5 -18.5t19.5 -46.5q0 -26 -18.5 -45.5t-46.5 -19.5q-26 0 -45.5 18.5t-19.5 46.5t19.5 46.5t45.5 18.5v0zM785 101l-311 -7
q-10 0 -10.5 4t7.5 10l106 81q8 6 8 14.5t-8 13.5l-68 51q-17 11 -35 17q-1 1 -7.5 3.5t-10.5 5t-5 5.5l-14 13q-7 7 -7 -3q0 -12 10 -27l14 -24q5 -8 5.5 -21t-2.5 -20l-37 -103q-3 -8 -12 -16t-19 -11q-41 -10 -41 7q0 7 10.5 35.5t20.5 53l10 24.5q3 7 2.5 20t-5.5 20
l-21 41q-10 16 -10 -3l3 -55q0 -17 -6 -44l-28 -68q-2 -8 -10.5 -18.5t-16.5 -15.5q-17 -11 -41 13l24 92q3 11 3 45l-10 116q0 17 14 37q13 14 13 24q0 3 -5 9t-12 8q-7 3 -12 9t-5 12q0 9 17 3.5t17 13.5l7 37q0 11 7 17.5t17 6.5l120 11q22 0 34 -17l37 -69q5 -7 5 -18.5
t-5 -18.5l-17 -31q-10 -15 -10 -41v-20q0 -23 17 -35l79 -54q7 -5 18 -5t19 5v0q8 5 18.5 4.5t15.5 -8.5l126 -112q8 -5 6.5 -10t-9.5 -7v0z" />
    <glyph glyph-name="wodeshoucangs" unicode="&#xe917;" 
d="M509 879q-101 0 -192 -39.5t-157 -105.5t-104.5 -157.5t-38.5 -192.5t39.5 -192.5t105.5 -157.5t157.5 -105.5t192.5 -39.5t192.5 39.5t157.5 105.5t105.5 157.5t39.5 192.5q-1 101 -41 192.5t-106.5 157.5t-158.5 105.5t-192 39.5v0zM720 104l-211 96l-212 -96l55 208
l-151 168l215 20l96 195l96 -195l215 -20l-157 -164z" />
    <glyph glyph-name="huanbaozhiliss" unicode="&#xe930;" 
d="M512 879q-100 0 -192 -39.5t-158 -105.5t-105.5 -158t-39.5 -192t39.5 -192t105.5 -158t158 -105.5t192 -39.5t192 39.5t158 105.5t105.5 158t39.5 192t-39.5 192t-105.5 158t-158 105.5t-192 39.5zM512 -93q-97 0 -185.5 37.5t-152.5 101.5t-101.5 152.5t-37.5 185.5
t37.5 185.5t101.5 152.5t152.5 101.5t185.5 37.5t185.5 -37.5t152.5 -101.5t101.5 -152.5t37.5 -185.5t-37.5 -185.5t-101.5 -152.5t-152.5 -101.5t-185.5 -37.5zM512 783q-108 0 -200 -53.5t-145.5 -145.5t-53.5 -200t53.5 -200t145.5 -145.5t200 -53.5t200 53.5
t145.5 145.5t53.5 200t-53.5 200t-145.5 145.5t-200 53.5zM519 615q40 -7 80 -47q9 8 22 9t29 -5t33.5 -25t31.5 -48q16 -45 12.5 -85.5t-19.5 -72.5q-8 -17 -18 -30t-16 -18.5l-6 -5.5q-3 31 -17 62q-6 15 -15 29.5t-21.5 32.5t-15.5 23q-22 33 -27 56t6 50q62 -35 90 -114
q12 -35 12 -73q1 1 1.5 12t-1.5 30.5t-8 42t-20 48.5t-34 47q-14 14 -24 21l-2 2q-2 0 -2 2v0q-21 16 -44 26t-37 8q-6 9 -2.5 16t12.5 7zM337 231q-22 35 -16 91q-16 1 -27.5 16t-13 43.5t18.5 70.5q18 36 53.5 62t69.5 35q18 5 34.5 6t24 0l7.5 -1q-23 -23 -37 -52
q-9 -19 -19.5 -54.5t-11.5 -37.5q-11 -37 -26 -55.5t-42 -27.5q-15 66 28 139q9 16 21 29.5t19 19.5t9 6q-1 0 -10 -7t-22.5 -21.5t-26.5 -33t-23.5 -45.5t-13.5 -56v-31v-5v0q2 -25 9.5 -49t16.5 -35q-1 -9 -8.5 -10.5t-13.5 3.5zM741 282q-26 -37 -76 -52q6 -28 -21.5 -52
t-89.5 -23q-41 1 -79 24t-60 52q-12 16 -19.5 31t-9.5 22.5l-2 7.5q29 -10 62 -12q16 -1 32.5 0.5t38 5.5t26.5 4q39 6 62 0t42 -27q-55 -43 -138 -32q-12 2 -23.5 4.5t-19.5 5.5t-14.5 5.5t-10 4t-4.5 1.5q0 -3 27 -14t69 -17.5t92 9.5q17 6 28 13q1 0 5 4v0
q22 12 41.5 29.5t24.5 31.5q11 -4 16 -11.5t1 -14.5z" />
    <glyph glyph-name="youqicailiaoyanshous" unicode="&#xe936;" 
d="M512 879q-100 0 -192 -39.5t-158 -105.5t-105.5 -158t-39.5 -192t39.5 -192t105.5 -158t158 -105.5t192 -39.5t192 39.5t158 105.5t105.5 158t39.5 192t-39.5 192t-105.5 158t-158 105.5t-192 39.5zM512 -93q-97 0 -185.5 37.5t-152.5 101.5t-101.5 152.5t-37.5 185.5
t37.5 185.5t101.5 152.5t152.5 101.5t185.5 37.5t185.5 -37.5t152.5 -101.5t101.5 -152.5t37.5 -185.5t-37.5 -185.5t-101.5 -152.5t-152.5 -101.5t-185.5 -37.5zM512 783q-108 0 -200 -53.5t-145.5 -145.5t-53.5 -200t53.5 -200t145.5 -145.5t200 -53.5t200 53.5
t145.5 145.5t53.5 200t-53.5 200t-145.5 145.5t-200 53.5zM488 191q-12 -12 -32 -12q-16 0 -31 12l-139 139q-13 13 -13 31t13 30l115 114l-71 73q-6 6 0 12.5t12 0.5l73 -73l43 43q12 12 30.5 12t30.5 -12l139 -139q13 -13 13 -31t-13 -30zM686 174q-33 0 -45 19t-5.5 46
t17.5 53t22.5 45.5t11.5 18.5q4 -5 8.5 -14t17 -33t18 -45t7.5 -43t-11.5 -34.5t-40.5 -12.5zM509 549q-7 7 -20 7q-8 0 -19 -7l-43 -44l61 -60q6 -6 0 -12t-12 0l-59 60l-108 -107l344 -2q6 15 -6 26z" />
    <glyph glyph-name="wamugongchengyanshous" unicode="&#xe941;" 
d="M512 879q-100 0 -192 -39.5t-158 -105.5t-105.5 -158t-39.5 -192t39.5 -192t105.5 -158t158 -105.5t192 -39.5t192 39.5t158 105.5t105.5 158t39.5 192t-39.5 192t-105.5 158t-158 105.5t-192 39.5zM512 -93q-97 0 -185.5 37.5t-152.5 101.5t-101.5 152.5t-37.5 185.5
t37.5 185.5t101.5 152.5t152.5 101.5t185.5 37.5t185.5 -37.5t152.5 -101.5t101.5 -152.5t37.5 -185.5t-37.5 -185.5t-101.5 -152.5t-152.5 -101.5t-185.5 -37.5zM512 776q-107 0 -197 -52.5t-142.5 -142.5t-52.5 -197t52.5 -197t142.5 -142.5t197 -52.5t197 52.5
t142.5 142.5t52.5 197t-52.5 197t-142.5 142.5t-197 52.5zM712 530l-127 -89q-18 -13 -35 4v-5h-22v-89l-26 -31l88 -54l-274 -90q-9 -4 -14 3.5t0 15.5l120 173l69 -41l23 27v98h26v8l-2 6q-6 9 -4 19t11 15l127 89q9 6 20 4t18 -11l10 -16q6 -7 3.5 -18.5t-11.5 -17.5z
" />
    <glyph glyph-name="qiandingsanfanghetongs" unicode="&#xe942;" 
d="M512 887q-102 0 -195.5 -39.5t-161 -107t-107 -161t-39.5 -195.5t39.5 -195.5t107 -161t161 -107t195.5 -39.5t195.5 39.5t161 107t107 161t39.5 195.5t-39.5 195.5t-107 161t-161 107t-195.5 39.5zM512 -102q-98 0 -188 38.5t-155.5 104t-104 155.5t-38.5 188t38.5 188
t104 155.5t155.5 104t188 38.5t188 -38.5t155.5 -104t104 -155.5t38.5 -188t-38.5 -188t-104 -155.5t-155.5 -104t-188 -38.5zM512 783q-108 0 -200 -53.5t-145.5 -145.5t-53.5 -200t53.5 -200t145.5 -145.5t200 -53.5t200 53.5t145.5 145.5t53.5 200t-53.5 200
t-145.5 145.5t-200 53.5zM672 202q0 -11 -8 -18.5t-18 -7.5h-295q-11 0 -18.5 7.5t-7.5 18.5v364q0 11 7.5 18.5t18.5 7.5h295q10 0 18 -7.5t8 -18.5v-126h-26v118q0 8 -9 8h-278q-8 0 -8 -8v-348q0 -8 8 -8h278q9 0 9 8v73h26v-81zM465 370l16 -57l38 40l21 -42l8 12l9 -12
l-21 -28l-21 44l-41 -42l-14 56l-33 -49l-10 7zM406 403v17h139v-17h-139zM406 440v17h174v-17h-174zM406 478v17h191v-17h-191zM646 320l-49 -14l12 48l118 119l33 -40z" />
    <glyph glyph-name="yujiaodiss" unicode="&#xe800;" 
d="M630 224v0v0l-38 44l12 12l26 -31l49 46l10 -12zM512 879q-100 0 -192 -39.5t-158 -105.5t-105.5 -158t-39.5 -192t39.5 -192t105.5 -158t158 -105.5t192 -39.5t192 39.5t158 105.5t105.5 158t39.5 192t-39.5 192t-105.5 158t-158 105.5t-192 39.5zM512 -93
q-97 0 -185.5 37.5t-152.5 101.5t-101.5 152.5t-37.5 185.5t37.5 185.5t101.5 152.5t152.5 101.5t185.5 37.5t185.5 -37.5t152.5 -101.5t101.5 -152.5t37.5 -185.5t-37.5 -185.5t-101.5 -152.5t-152.5 -101.5t-185.5 -37.5zM512 776q-107 0 -197 -52.5t-142.5 -142.5
t-52.5 -197t52.5 -197t142.5 -142.5t197 -52.5t197 52.5t142.5 142.5t52.5 197t-52.5 197t-142.5 142.5t-197 52.5zM358 202q-11 0 -19 7.5t-8 18.5v340q0 10 8 18t19 8h324q11 0 18.5 -8t7.5 -18v-205h-26v196q0 9 -9 9h-305q-9 0 -9 -9v-323q0 -8 9 -8h172v-26h-182z
M413 367v17h113v-17h-113zM476 327v-18h-61v18h61zM413 424v17h163v-17h-163zM413 481v18h205v-18h-205zM640.5 174q-35.5 0 -60.5 25t-25 60t25 60t60.5 25t60 -25t24.5 -60t-24.5 -60t-60 -25z" />
    <glyph glyph-name="shiliangzhinengduixiang2s" unicode="&#xe924;" 
d="M512 896q-139 0 -257 -68.5t-186.5 -186.5t-68.5 -257t68.5 -257t186.5 -186.5t257 -68.5t257 68.5t186.5 186.5t68.5 257t-68.5 257t-186.5 186.5t-257 68.5v0zM768 481v-65h-224v-97h224v-64h-224v-3l3 3q0 -3 -3 -3v-124h-64v129h-224v65h224v97h-224v65h129l-129 156
h97l129 -159h65l129 159h97l-129 -159h124z" />
    <glyph glyph-name="dingdanbianhaos" unicode="&#xe923;" horiz-adv-x="1060" 
d="M851 659h-85v15q0 7 -4.5 12t-12.5 5h-99q-10 29 -32 57q-35 35 -84.5 35t-85.5 -35q-26 -27 -31 -57h-106q-9 0 -15 -5t-6 -12v-18h-85q-13 0 -22.5 -8.5t-9.5 -19.5v-608q0 -13 9 -20.5t23 -7.5h642q13 0 22.5 8.5t9.5 19.5v608q0 13 -8.5 22t-19.5 9v0v0zM466 723v0
q25 25 60 25t60 -25q7 -7 21 -28h-159q6 16 18 28v0v0zM328 656v0h399v-57h-399v57zM819 52v0h-582v547h53v-17q0 -8 4.5 -13t12.5 -5h438q8 0 13 5t5 13v17h53v-547h3zM346 345v0q-13 0 -22.5 -8.5t-9.5 -19.5q0 -13 9 -20.5t23 -7.5q13 0 22.5 8.5t9.5 19.5q0 13 -9 20.5
t-23 7.5v0v0zM346 222v0q-13 0 -22.5 -9t-9.5 -20q0 -13 9 -20.5t23 -7.5q13 0 22.5 8.5t9.5 19.5t-9.5 20t-22.5 9v0v0zM706 458v0h-268q-8 0 -13 -5t-5 -12.5t5 -12.5t13 -5h268q8 0 13 5t5 12q2 8 -3.5 13t-14.5 5v0v0zM346 472v0q-13 0 -22.5 -8.5t-9.5 -19.5
q0 -13 9.5 -22.5t22.5 -9.5t22.5 9.5t9.5 22.5q0 11 -9.5 19.5t-22.5 8.5v0v0zM706 211v0h-268q-8 0 -13 -5t-5 -13t5 -12.5t13 -4.5h268q8 0 13 4.5t5 12.5q3 6 -3.5 12t-14.5 6v0v0zM706 335v0h-268q-8 0 -13 -5t-5 -13t5 -13t13 -5h268q8 0 13 5t5 13q2 7 -3.5 12.5
t-14.5 5.5v0v0z" />
    <glyph glyph-name="dianhuazb" unicode="&#xe931;" 
d="M947 118l-115 89q-2 2 -5.5 4t-13 7t-17.5 7t-17.5 0t-15.5 -10q-18 -24 -42 -33.5t-38 -7.5l-15 3q-6 4 -17.5 12.5t-43.5 34t-60 51t-61 61t-55 67t-32.5 65t-1.5 59.5q2 2 4.5 5.5t8.5 14t8 21t-1.5 25t-14.5 27.5l-95 115q-1 1 -4 3t-12.5 6.5t-19.5 6t-25.5 -0.5
t-30.5 -10q-19 -10 -32.5 -20t-29.5 -31.5t-20 -47.5t5 -67.5t36 -92.5q39 -72 89.5 -141.5t120 -143.5t163 -139.5t198.5 -110.5q3 -1 9 -2.5t23 -4.5t33.5 -3t38 5t39 15t33 31.5t24.5 50.5q1 0 4 17.5t3.5 35t-5.5 27.5z" />
    <glyph glyph-name="jianmian" unicode="&#xe17fc;" 
d="M512.5 896q-103.5 0 -198.5 -40.5t-163.5 -109t-109 -163.5t-40.5 -198.5t40.5 -198.5t109 -163.5t163.5 -109t198.5 -40.5t198.5 40.5t163.5 109t109 163.5t40.5 198.5t-40.5 198.5t-109 163.5t-163.5 109t-198.5 40.5zM512.5 -109q-100.5 0 -192 39t-157.5 105
t-105 157.5t-39 192t39 192t105 157.5t157.5 105t192 39t192 -39t157.5 -105t105 -157.5t39 -192t-39 -192t-105 -157.5t-157.5 -105t-192 -39zM707 505q-7 0 -7 -7.5t7 -7.5t7 7.5t-7 7.5zM655 505q-7 0 -7 -7.5t7 -7.5t7 7.5t-7 7.5zM681 505q-7 0 -7 -7.5t7 -7.5t7 7.5
t-7 7.5zM512.5 790q-110.5 0 -204 -54t-147.5 -147.5t-54 -204t54 -204t147.5 -147.5t204 -54t204 54t147.5 147.5t54 204t-54 204t-147.5 147.5t-204 54zM387 256q0 -3 -1 -7v-2l-1 -1q-10 1 -31 3q-16 1 -28 3q-13 2 -22 4t-11 4q-4 3 -6 17q-1 13 2 36q2 12 10 19
q8 6 19 10t22 7t20 9q7 4 11 9q3 4 5 8t2 8.5t-1 9.5q-1 8 -5 12q-4 5 -10 10q-3 2 -5 6q-3 5 -4 9t-3 10q-2 1 -5 3q-2 2 -4 5t-4 8q-2 6 -1.5 11t2.5 8q1 5 4 8q-1 12 1 25q2 11 5 23q4 12 11 22q6 10 13 16q8 5 16 9t16 5t16 1q20 0 35 -9q16 -8 23 -17q5 -7 7 -13
q1 -6 3 -13q-7 -4 -15 -13q-8 -8 -15 -17q-8 -11 -12 -25t-5 -25q-2 -14 -2 -28q-3 -3 -5 -7q-1 -4 -1.5 -9.5t1.5 -12t4.5 -10.5t3.5 -5q3 -3 5 -4q1 -5 3 -12q2 -5 4 -9q2 -5 5 -8q3 -2 4 -3q2 -3 3 -3q1 -2 1 -4q0 -3 1 -6q-1 -5 -2 -7t-6 -5q-9 -6 -21 -11
q-14 -4 -23 -8q-10 -5 -18 -12.5t-10 -22.5q0 -2 -0.5 -4.5t-0.5 -4.5zM663 214q-1 -7 -3 -10t-9.5 -5t-18.5 -4q-13 -2 -25 -4q-15 -2 -27 -3q-14 -1 -26 -2q-13 -1 -22.5 -1t-22.5 1l-26 2q-10 1 -27 3q-14 1 -24 3q-11 2 -18.5 3.5t-9.5 3.5q-3 3 -5 16.5t1 35.5
q2 13 10 19q8 7 18 10q12 4 23 7q12 4 20 9q6 5 11 9q3 4 5 8t2 8t-1 10q0 8 -5 12.5t-10 8.5q-3 3 -5 7q-2 5 -4 9q-1 5 -3 11q-2 0 -4 2q-2 1 -4 5q-2 2 -5 8q-2 6 -1.5 11t2.5 8q1 4 4 7q0 13 1 26q2 10 5 23q3 12 10 22q6 10 14 16t16 9t16 5q9 1 16 1q19 0 35 -8.5
t23 -17.5q9 -11 12 -24q5 -14 7 -25q1 -14 1 -27q2 -2 3.5 -4.5t2.5 -6.5t0 -9q-1 -7 -3 -11.5t-5 -6.5q-3 -3 -6 -4q-1 -5 -3 -10t-4 -9q-2 -5 -5 -6q-1 -1 -3 -2.5t-3 -2.5l-4 -4t-3 -5q-2 -3 -2 -7q-1 -6 -1 -11t2 -10q3 -5 8.5 -10t13.5 -8q8 -4 18 -6q12 -3 19 -6
q9 -4 17 -10q7 -5 10 -14q1 -5 2 -13q1 -9 1.5 -16.5t-1.5 -15.5zM748 463q0 -5 -3.5 -8.5t-7.5 -3.5h-63l-22 -22q-1 -2 -4 -2q-5 0 -5 6v18h-17q-5 0 -8.5 3.5t-3.5 8.5v74q0 5 3.5 8.5t8.5 3.5h111q4 0 7.5 -3.5t3.5 -8.5v-74z" />
    <glyph glyph-name="yuyuejianmian" unicode="&#xe16fd;" 
d="M511.5 895q-103.5 0 -198.5 -40.5t-163.5 -109.5t-109 -163.5t-40.5 -198t40.5 -198.5t109 -163.5t163.5 -109t198.5 -40.5t198 40.5t163.5 109t109.5 163.5t40.5 198.5t-40.5 198t-109.5 163.5t-163.5 109.5t-198 40.5zM511.5 -110q-100.5 0 -192 39t-157.5 105
t-105 157.5t-39 192t39 192t105 157.5t157.5 105t192 39t192 -39t157.5 -105t105 -157.5t39 -192t-39 -192t-105 -157.5t-157.5 -105t-192 -39zM608 371l-83 -6v131q0 9 -6 14.5t-14.5 5.5t-14.5 -5.5t-6 -14.5v-140q0 -9 16 -17q1 -2 9 -6l82 3q16 -9 26 7q4 8 1 15.5
t-10 12.5zM511.5 789q-110.5 0 -204 -54.5t-147.5 -147.5t-54 -203.5t54 -204t147.5 -147.5t204 -54t203.5 54t147.5 147.5t54.5 204t-54.5 203.5t-147.5 147.5t-203.5 54.5zM511.5 145q-99.5 0 -170 70.5t-70.5 170t70.5 170t170 70.5t170 -70.5t70.5 -170t-70.5 -170
t-170 -70.5z" />
  </font>
</defs>
</svg>
